<!-- icon666.com - MILLIONS vector ICONS FREE --><svg id="checkmark" enable-background="new 0 0 300 300" viewBox="0 0 300 300" xmlns="http://www.w3.org/2000/svg" xmlns:xlink="http://www.w3.org/1999/xlink"><linearGradient id="SVGID_1_" gradientUnits="userSpaceOnUse" x1="36.064" x2="223.117" y1="259.087" y2="72.034"><stop offset="0" stop-color="#107eff"></stop><stop offset="1" stop-color="#8f16ff"></stop></linearGradient><g><path d="m154.799 76c7.719 0 14-6.281 14-14s-6.281-14-14-14-14 6.281-14 14 6.281 14 14 14zm0-20c3.309 0 6 2.691 6 6s-2.691 6-6 6-6-2.691-6-6 2.691-6 6-6zm62 124h-38.801c-6.611-18.612-24.349-32-45.199-32s-38.589 13.388-45.199 32h-7.538c-1.656-4.646-6.055-8-11.263-8s-9.606 3.354-11.263 8h-8.737c-2.209 0-4 1.791-4 4s1.791 4 4 4h8.737c1.656 4.646 6.055 8 11.263 8s9.606-3.354 11.263-8h5.46c-.44 2.608-.723 5.269-.723 8 0 26.467 21.533 48 48 48s48-21.533 48-48c0-2.731-.282-5.392-.723-8h36.723c2.209 0 4-1.791 4-4s-1.791-4-4-4zm-148 8c-2.205 0-4-1.795-4-4s1.795-4 4-4 4 1.795 4 4-1.795 4-4 4zm64 48c-22.057 0-40-17.943-40-40s17.943-40 40-40 40 17.943 40 40-17.944 40-40 40zm0-76c-19.85 0-36 16.15-36 36s16.15 36 36 36 36-16.15 36-36-16.151-36-36-36zm0 64c-15.439 0-28-12.561-28-28s12.561-28 28-28 28 12.561 28 28-12.561 28-28 28zm-68-172v-12c0-2.209 1.791-4 4-4s4 1.791 4 4v12c0 2.209-1.791 4-4 4s-4-1.791-4-4zm8 16v12c0 2.209-1.791 4-4 4s-4-1.791-4-4v-12c0-2.209 1.791-4 4-4s4 1.791 4 4zm-28-8c0-2.209 1.791-4 4-4h12c2.209 0 4 1.791 4 4s-1.791 4-4 4h-12c-2.209 0-4-1.791-4-4zm28 0c0-2.209 1.791-4 4-4h12c2.209 0 4 1.791 4 4s-1.791 4-4 4h-12c-2.209 0-4-1.791-4-4zm194.402 72c0-21.176-17.227-38.402-38.402-38.402-19.825 0-36.184 15.1-38.191 34.402h-22.219l-17.943-22.494c-.76-.951-1.91-1.506-3.127-1.506h-31.854c-1.338 0-2.588.67-3.33 1.783l-14.788 22.217h-12.548v-8c0-2.209-1.791-4-4-4h-24c-2.209 0-4 1.791-4 4v8h-6.057c-7.688 0-13.943 6.256-13.943 13.943v108.113c0 7.688 6.256 13.943 13.943 13.943h172.113c8.383 0 13.943-10.801 13.943-17.943v-75.865c19.303-2.007 34.403-18.366 34.403-38.191zm-206.402-8h16v4h-16zm158.056 132h-172.113c-3.277 0-5.943-2.666-5.943-5.943v-108.114c0-3.277 2.666-5.943 5.943-5.943h143.865c1.871 17.987 16.205 32.321 34.191 34.191v75.865c.001 4.089-3.499 9.944-5.943 9.944zm9.944-93.598c-16.764 0-30.402-13.639-30.402-30.402s13.639-30.402 30.402-30.402 30.402 13.639 30.402 30.402-13.639 30.402-30.402 30.402zm18.072-39.455c1.562 1.562 1.562 4.094 0 5.656l-18.58 18.58c-.779.781-1.805 1.172-2.828 1.172-1 0-2.002-.373-2.777-1.121l-8.664-8.355c-1.59-1.533-1.635-4.064-.102-5.656 1.535-1.586 4.066-1.633 5.656-.102l5.836 5.629 15.803-15.803c1.562-1.562 4.094-1.562 5.656 0z" fill="url(#SVGID_1_)" style="fill: rgb(0, 0, 0);"></path></g></svg>